<?xml version="1.0" encoding="UTF-8" standalone="no"?>
<!-- Created with Inkscape (http://www.inkscape.org/) -->

<svg
   xmlns:dc="http://purl.org/dc/elements/1.1/"
   xmlns:cc="http://creativecommons.org/ns#"
   xmlns:rdf="http://www.w3.org/1999/02/22-rdf-syntax-ns#"
   xmlns:svg="http://www.w3.org/2000/svg"
   xmlns="http://www.w3.org/2000/svg"
   xmlns:sodipodi="http://sodipodi.sourceforge.net/DTD/sodipodi-0.dtd"
   xmlns:inkscape="http://www.inkscape.org/namespaces/inkscape"
   id="svg3672"
   version="1.1"
   inkscape:version="0.91 r13725"
   width="600"
   height="581"
   viewBox="0 0 600 581"
   sodipodi:docname="Meetei Mayek letter KOK (KA).svg">
  <metadata
     id="metadata3678">
    <rdf:RDF>
      <cc:Work
         rdf:about="">
        <dc:format>image/svg+xml</dc:format>
        <dc:type
           rdf:resource="http://purl.org/dc/dcmitype/StillImage" />
        <dc:title></dc:title>
      </cc:Work>
    </rdf:RDF>
  </metadata>
  <defs
     id="defs3676" />
  <sodipodi:namedview
     pagecolor="#ffffff"
     bordercolor="#666666"
     borderopacity="1"
     objecttolerance="10"
     gridtolerance="10"
     guidetolerance="10"
     inkscape:pageopacity="0"
     inkscape:pageshadow="2"
     inkscape:window-width="1366"
     inkscape:window-height="706"
     id="namedview3674"
     showgrid="false"
     inkscape:zoom="0.47580645"
     inkscape:cx="300"
     inkscape:cy="248"
     inkscape:window-x="-8"
     inkscape:window-y="-8"
     inkscape:window-maximized="1"
     inkscape:current-layer="svg3672" />
  <path
     style="fill:#000000"
     d="m 89.406781,322.0678 0,-194 -10.5,0 -10.5,0 0,-28 0,-28.000004 234.499999,0 234.5,0 0,28.000004 0,28 -11,0 -11,0 0,194 0,194 -213,0 -212.999999,0 0,-194 z m 127.999999,114 c 0,-16.925 -0.36487,-27 -0.97782,-27 -0.74606,0 -53.32332,45.35903 -60.98647,52.61376 -1.24991,1.1833 3.17867,1.38624 30.25,1.38624 l 31.71429,0 0,-27 z m 243,-104.57248 0,-131.57248 -2.91482,2.32248 c -1.60315,1.27736 -15.76195,13.57248 -31.46401,27.32248 l -28.54921,25 -0.036,103.72254 -0.036,103.72255 14.25,0.30719 c 7.8375,0.16896 22.0125,0.40631 31.5,0.52746 l 17.25004,0.22026 0,-131.57248 z m -114,46.98915 c 0,-50.9931 -0.36197,-83.45337 -0.92833,-83.25 -0.51058,0.18333 -14.91058,13.60027 -32,29.81542 l -31.07167,29.48208 0,53.76792 0,53.76791 32,0 32,0 0,-83.58333 z m -160.19314,-23.91667 31.16777,-29 0.0127,-98.75 0.0127,-98.75 -32,0 -32,0 0,128.08333 c 0,70.44584 0.3688,127.93334 0.81954,127.75 0.45075,-0.18333 14.84505,-13.38333 31.98732,-29.33333 z m 124.0878,-100.99584 29.10534,-24.87371 0,-50.31523 0,-50.31522 -31.5,0 -31.5,0 0,77.07258 0,77.07258 2.39466,-1.88364 c 1.31706,-1.036 15.49206,-13.07681 31.5,-26.75736 z M 427.87861,157.16 c 14.31549,-12.8743 27.36952,-24.6868 29.00894,-26.25 l 2.98077,-2.8422 -31.23077,0 -31.23077,0 0,28.15499 0,28.15499 2.22183,-1.90499 c 1.22201,-1.04775 13.93451,-12.4385 28.25,-25.31279 z"
     id="path3682"
     inkscape:connector-curvature="0" />
</svg>
